<svg xmlns="http://www.w3.org/2000/svg" viewBox="0 0 1600 900" width="1600" height="900">
  <defs>
    <radialGradient id="g1" cx="20%" cy="30%" r="60%">
      <stop offset="0" stop-color="#1ea7d6"/>
      <stop offset="1" stop-color="#0a3a52" stop-opacity="0"/>
    </radialGradient>
    <radialGradient id="g2" cx="85%" cy="75%" r="55%">
      <stop offset="0" stop-color="#18c2b0"/>
      <stop offset="1" stop-color="#0a3a52" stop-opacity="0"/>
    </radialGradient>
  </defs>
  <rect width="1600" height="900" fill="#0a3a52"/>
  <rect width="1600" height="900" fill="url(#g1)"/>
  <rect width="1600" height="900" fill="url(#g2)"/>
  <!-- ネットワーク（AI・つながりのイメージ） -->
  <g stroke="#9fe6ff" stroke-opacity="0.35" stroke-width="2">
    <line x1="160" y1="180" x2="420" y2="120"/>
    <line x1="420" y1="120" x2="620" y2="300"/>
    <line x1="160" y1="180" x2="300" y2="420"/>
    <line x1="300" y1="420" x2="620" y2="300"/>
    <line x1="620" y1="300" x2="900" y2="200"/>
    <line x1="900" y1="200" x2="1180" y2="330"/>
    <line x1="620" y1="300" x2="820" y2="560"/>
    <line x1="820" y1="560" x2="1180" y2="330"/>
    <line x1="1180" y1="330" x2="1440" y2="160"/>
    <line x1="1180" y1="330" x2="1380" y2="620"/>
    <line x1="820" y1="560" x2="1080" y2="760"/>
    <line x1="1080" y1="760" x2="1380" y2="620"/>
    <line x1="300" y1="420" x2="440" y2="720"/>
    <line x1="440" y1="720" x2="820" y2="560"/>
  </g>
  <g fill="#c8f3ff">
    <circle cx="160" cy="180" r="8"/>
    <circle cx="420" cy="120" r="6"/>
    <circle cx="620" cy="300" r="12"/>
    <circle cx="300" cy="420" r="7"/>
    <circle cx="900" cy="200" r="7"/>
    <circle cx="1180" cy="330" r="12"/>
    <circle cx="820" cy="560" r="9"/>
    <circle cx="1440" cy="160" r="6"/>
    <circle cx="1380" cy="620" r="9"/>
    <circle cx="1080" cy="760" r="7"/>
    <circle cx="440" cy="720" r="7"/>
  </g>
  <g fill="#c8f3ff" fill-opacity="0.15">
    <circle cx="620" cy="300" r="40"/>
    <circle cx="1180" cy="330" r="40"/>
  </g>
</svg>
